<svg width="48" height="48" viewBox="0 0 48 48" fill="none" xmlns="http://www.w3.org/2000/svg">
<mask id="mask0_4_21397" style="mask-type:luminance" maskUnits="userSpaceOnUse" x="10" y="4" width="28" height="40">
<path fill-rule="evenodd" clip-rule="evenodd" d="M24 8C21.794 8 20 9.794 20 12V22C20 24.206 21.794 26 24 26C26.206 26 28 24.206 28 22V12C28 9.794 26.206 8 24 8ZM32 22C32 26.412 28.412 30 24 30C19.588 30 16 26.412 16 22V12C16 7.588 19.588 4 24 4C28.412 4 32 7.588 32 12V22ZM36 20C37.106 20 38 20.896 38 22C38 29.04 32.774 34.864 26 35.84V40H30.21C31.196 40 32 40.804 32 41.79V42.21C32 43.196 31.196 44 30.21 44H17.79C16.804 44 16 43.196 16 42.21V41.79C16 40.804 16.804 40 17.79 40H22V35.84C15.226 34.864 10 29.04 10 22C10 20.896 10.894 20 12 20C13.106 20 14 20.896 14 22C14 27.514 18.486 32 24 32C29.514 32 34 27.514 34 22C34 20.896 34.894 20 36 20Z" fill="white"/>
</mask>
<g mask="url(#mask0_4_21397)">
<rect width="48" height="48" fill="#A4C400"/>
</g>
</svg>
