<svg width="40" height="40" viewBox="0 0 40 40" fill="none" xmlns="http://www.w3.org/2000/svg">
<mask id="mask0_30_131" style="mask-type:luminance" maskUnits="userSpaceOnUse" x="5" y="5" width="31" height="30">
<path fill-rule="evenodd" clip-rule="evenodd" d="M8.33325 18.3333C8.33325 12.8183 12.8183 8.33325 18.3333 8.33325C23.8483 8.33325 28.3333 12.8183 28.3333 18.3333C28.3333 23.8483 23.8483 28.3333 18.3333 28.3333C12.8183 28.3333 8.33325 23.8483 8.33325 18.3333ZM34.5117 32.155L28.8533 26.495C30.6083 24.2383 31.6667 21.41 31.6667 18.3333C31.6667 10.9817 25.685 5 18.3333 5C10.9817 5 5 10.9817 5 18.3333C5 25.685 10.9817 31.6667 18.3333 31.6667C21.41 31.6667 24.2383 30.6083 26.495 28.8533L32.155 34.5117C32.48 34.8367 32.9067 35 33.3333 35C33.76 35 34.1867 34.8367 34.5117 34.5117C35.1633 33.86 35.1633 32.8067 34.5117 32.155Z" fill="white"/>
</mask>
<g mask="url(#mask0_30_131)">
<rect width="40" height="40" fill="#D980FA"/>
</g>
</svg>
